<?xml version="1.0" encoding="UTF-8"?><svg id="a" xmlns="http://www.w3.org/2000/svg" xmlns:xlink="http://www.w3.org/1999/xlink" viewBox="0 0 470.73 536.99"><defs><style>.ac{fill:url(#j);}.ad{fill:url(#p);}.ae{fill:url(#m);}.af{fill:url(#aa);}.ag{fill:url(#r);}.ah{fill:url(#h);}.ai{fill:url(#t);}.aj{fill:url(#i);}.ak{fill:url(#l);}.al{fill:url(#s);}.am{fill:url(#q);}.an{fill:url(#f);}.ao{fill:url(#g);}.ap{fill:url(#n);}.aq{fill:url(#e);}.ar{fill:url(#v);}.as{fill:url(#y);}.at{fill:url(#o);}.au{fill:url(#d);}.av{fill:url(#x);}.aw{fill:url(#b);}.ax{fill:url(#u);}.ay{fill:url(#z);}.az{fill:url(#c);}.ba{fill:url(#w);}.bb{fill:url(#ab);}.bc{fill:url(#k);}</style><linearGradient id="b" x1="138.53" y1="70.5" x2="138.53" y2="51.07" gradientUnits="userSpaceOnUse"><stop offset="0" stop-color="#123f64"/><stop offset="1" stop-color="#143a5b"/></linearGradient><linearGradient id="c" x1="138.53" y1="188.69" x2="138.53" y2="108.66" gradientUnits="userSpaceOnUse"><stop offset="0" stop-color="#116e87"/><stop offset=".15" stop-color="#0f7a91"/><stop offset=".71" stop-color="#0aa1b3"/><stop offset="1" stop-color="#09b0c0"/></linearGradient><linearGradient id="d" x1="331.42" y1="173.87" x2="331.42" y2="93.84" xlink:href="#c"/><linearGradient id="e" x1="235.33" y1="103.71" x2="235.33" y2=".27" gradientUnits="userSpaceOnUse"><stop offset="0" stop-color="#0bb693"/><stop offset=".59" stop-color="#27d2a3"/><stop offset="1" stop-color="#36e1ac"/></linearGradient><linearGradient id="f" x1="333.23" x2="333.23" xlink:href="#b"/><linearGradient id="g" x1="401.57" y1="203.34" x2="401.57" y2="183.91" gradientUnits="userSpaceOnUse"><stop offset="0" stop-color="#06a0aa"/><stop offset="1" stop-color="#03abb8"/></linearGradient><linearGradient id="h" x1="401.57" y1="245.86" x2="401.57" y2="226.43" gradientUnits="userSpaceOnUse"><stop offset="0" stop-color="#0a9cb7"/><stop offset=".93" stop-color="#069dbb"/></linearGradient><linearGradient id="i" x1="401.57" y1="287.41" x2="401.57" y2="267.98" gradientUnits="userSpaceOnUse"><stop offset="0" stop-color="#31d5a0"/><stop offset="1" stop-color="#2fdba1"/></linearGradient><linearGradient id="j" x1="68.2" y1="202.52" x2="68.2" y2="183.09" gradientUnits="userSpaceOnUse"><stop offset="0" stop-color="#05a2af"/><stop offset="1" stop-color="#0fa3b5"/></linearGradient><linearGradient id="k" x1="68.2" y1="245.86" x2="68.2" y2="226.43" gradientUnits="userSpaceOnUse"><stop offset="0" stop-color="#35cb99"/><stop offset=".96" stop-color="#31ce96"/></linearGradient><linearGradient id="l" x1="67.9" y1="288.08" x2="67.9" y2="268.65" gradientUnits="userSpaceOnUse"><stop offset="0" stop-color="#2ec18c"/><stop offset="1" stop-color="#39cd97"/></linearGradient><linearGradient id="m" x1="113.25" y1="362.55" x2="113.25" y2="219.06" xlink:href="#e"/><linearGradient id="n" x1="161.68" y1="387.4" x2="161.68" y2="233.1" xlink:href="#e"/><linearGradient id="o" x1="210.11" y1="434.47" x2="210.11" y2="187.47" xlink:href="#e"/><linearGradient id="p" x1="396.98" y1="437.47" x2="396.98" y2="141.21" gradientTransform="translate(458) rotate(-180) scale(.5 -1)" xlink:href="#e"/><linearGradient id="q" x1="-160.67" y1="387.4" x2="-160.67" y2="219.06" gradientTransform="translate(143.57) rotate(-180) scale(1.03 -1)" xlink:href="#e"/><linearGradient id="r" x1="-207.37" y1="361.77" x2="-207.37" y2="202.93" gradientTransform="translate(143.57) rotate(-180) scale(1.03 -1)" xlink:href="#e"/><linearGradient id="s" x1="65.15" y1="493.67" x2="65.15" y2="208.58" gradientUnits="userSpaceOnUse"><stop offset="0" stop-color="#173a51"/><stop offset="1" stop-color="#173e58"/></linearGradient><linearGradient id="t" x1="293.17" y1="493.8" x2="293.17" y2="208.71" gradientTransform="translate(698.74) rotate(-180) scale(1 -1)" xlink:href="#s"/><linearGradient id="u" x1="147.5" y1="536.99" x2="147.5" y2="359.25" gradientUnits="userSpaceOnUse"><stop offset="0" stop-color="#113d59"/><stop offset="1" stop-color="#143a56"/></linearGradient><linearGradient id="v" x1="441.37" y1="536.99" x2="441.37" y2="359.25" gradientTransform="translate(763.3) rotate(-180) scale(1 -1)" xlink:href="#u"/><linearGradient id="w" x1="161.78" y1="536.99" x2="161.78" y2="428.02" gradientUnits="userSpaceOnUse"><stop offset="0" stop-color="#85d6d3"/><stop offset="1" stop-color="#a9e6e7"/></linearGradient><linearGradient id="x" x1="151.4" y1="536.99" x2="151.4" y2="444.65" gradientUnits="userSpaceOnUse"><stop offset="0" stop-color="#173a51"/><stop offset="1" stop-color="#0ca6bb"/></linearGradient><linearGradient id="y" x1="141.33" y1="536.99" x2="141.33" y2="452.67" gradientUnits="userSpaceOnUse"><stop offset="0" stop-color="#173a51"/><stop offset="1" stop-color="#173a52"/></linearGradient><linearGradient id="z" x1="745.49" y1="536.99" x2="745.49" y2="428.02" gradientTransform="translate(1054.44) rotate(-180) scale(1 -1)" gradientUnits="userSpaceOnUse"><stop offset="0" stop-color="#85d9d2"/><stop offset="1" stop-color="#aae6e4"/></linearGradient><linearGradient id="aa" x1="735.11" y1="536.99" x2="735.11" y2="444.65" gradientTransform="translate(1054.44) rotate(-180) scale(1 -1)" gradientUnits="userSpaceOnUse"><stop offset="0" stop-color="#18b196"/><stop offset="1" stop-color="#33d4ac"/></linearGradient><linearGradient id="ab" x1="725.04" y1="536.99" x2="725.04" y2="452.8" gradientTransform="translate(1054.44) rotate(-180) scale(1 -1)" gradientUnits="userSpaceOnUse"><stop offset="0" stop-color="#11b394"/><stop offset="1" stop-color="#20c3a0"/></linearGradient></defs><circle class="aw" cx="138.53" cy="61.71" r="9.72"/><circle class="az" cx="138.53" cy="148.67" r="40.02"/><circle class="au" cx="331.42" cy="133.86" r="40.02"/><circle class="aq" cx="235.33" cy="51.99" r="51.72"/><circle class="an" cx="333.23" cy="61.71" r="9.72"/><circle class="ao" cx="401.57" cy="193.21" r="9.72"/><circle class="ah" cx="401.57" cy="237.06" r="9.72"/><circle class="aj" cx="401.57" cy="278.62" r="9.72"/><circle class="ac" cx="68.2" cy="193.21" r="9.72"/><circle class="bc" cx="68.2" cy="237.06" r="9.72"/><circle class="ak" cx="67.9" cy="278.62" r="9.72"/><polygon class="ae" points="130.12 362.55 96.38 343.77 96.38 219.06 130.12 219.06 130.12 362.55"/><polygon class="ap" points="178.55 387.4 144.81 368.96 144.81 233.1 178.55 233.1 178.55 387.4"/><path class="at" d="m226.34,434.21c-6.53-24.06-33.26-36.98-32.45-36.67v-210.07h32.45s0,256.15,0,246.74Z"/><path class="ad" d="m242.42,437.16c10.04-28.39,32.73-38.95,32.73-38.95V141.21h-32.73s0,307.23,0,295.95Z"/><polygon class="am" points="291.4 387.4 326.09 369.4 326.09 219.06 291.4 219.06 291.4 387.4"/><polygon class="ag" points="339.4 361.77 374.09 342.9 374.09 202.93 339.4 202.93 339.4 361.77"/><path class="al" d="m40.42,220.67c-1.88-6.89-7.9-11.76-14.74-12.07-6-.27-11.74,3.02-14.74,8.44-29.73,97.25-1.69,223.05,119.37,276.63v-41c-77.42-40.25-108.06-114.36-89-224.75l-.89-7.25Z"/><path class="ai" d="m430.31,220.8c1.88-6.89,7.9-11.76,14.74-12.07,6-.27,11.74,3.02,14.74,8.44,29.73,97.25,1.69,223.05-119.37,276.63v-41c77.42-40.25,108.06-114.36,89-224.75l.89-7.25Z"/><path class="ax" d="m94.45,361.1c-7.44-3.56-16.12-2.2-22.14,6.04s-4.07,18.52,1.98,23.59c5.39,7.27,46.77,31.49,78.07,50.96,19.86,11.25,32.29,26.9,33.61,49.13v46.17s40.37,0,40.37,0v-49.96c-2.02-30.06-18.5-53.19-32.47-66.96s-91.97-55.41-99.42-58.96Z"/><path class="ar" d="m374.97,361.1c7.44-3.56,16.12-2.2,22.14,6.04,6.02,8.24,4.07,18.52-1.98,23.59-5.39,7.27-46.77,31.49-78.07,50.96-19.86,11.25-32.29,26.9-33.61,49.13v46.17s-40.37,0-40.37,0v-49.96c2.02-30.06,18.5-53.19,32.47-66.96s91.97-55.41,99.42-58.96Z"/><path class="ba" d="m130.31,536.99v-108.97c36.38,5.94,63.96,38.02,62.93,66.86v42.11"/><path class="av" d="m130.31,536.99v-92.34c23.37,3.84,42.12,28.08,42.19,49.09v43.25"/><path class="as" d="m130.3,536.99v-84.32c8.96,3.52,21.25,17.3,22.06,31.92v52.4"/><path class="ay" d="m340.42,536.99v-108.97c-36.38,5.94-63.96,38.02-62.93,66.86v42.11"/><path class="af" d="m340.42,536.99v-92.34c-23.37,3.84-42.12,28.08-42.19,49.09v43.25"/><path class="bb" d="m340.42,536.99v-84.19c-8.96,3.51-21.25,17.28-22.06,31.87v52.32"/></svg>